<?xml version="1.0" encoding="UTF-8" standalone="no"?>
<svg
   height="18"
   width="18"
   viewBox="0 0 18 18"
   version="1.1"
   id="svg14"
   sodipodi:docname="earth.svg"
   inkscape:version="1.1.1 (3bf5ae0d25, 2021-09-20)"
   inkscape:export-filename="C:\DataFiles\Documents\4Work\TahoniProjects\tahoni-web-vite\src\assets\img\earth.png"
   inkscape:export-xdpi="276"
   inkscape:export-ydpi="276"
   xmlns:inkscape="http://www.inkscape.org/namespaces/inkscape"
   xmlns:sodipodi="http://sodipodi.sourceforge.net/DTD/sodipodi-0.dtd"
   xmlns="http://www.w3.org/2000/svg"
   xmlns:svg="http://www.w3.org/2000/svg">
  <defs
     id="defs18" />
  <sodipodi:namedview
     id="namedview16"
     pagecolor="#ffffff"
     bordercolor="#666666"
     borderopacity="1.0"
     inkscape:pageshadow="2"
     inkscape:pageopacity="0.0"
     inkscape:pagecheckerboard="0"
     showgrid="false"
     inkscape:zoom="42.777778"
     inkscape:cx="9.0233766"
     inkscape:cy="9"
     inkscape:window-width="1920"
     inkscape:window-height="974"
     inkscape:window-x="-11"
     inkscape:window-y="-11"
     inkscape:window-maximized="1"
     inkscape:current-layer="svg14" />
  <title
     id="title2">earth</title>
  <g
     stroke-width="1.5"
     fill="none"
     stroke="#212121"
     class="nc-icon-wrapper"
     id="g12"
     style="stroke:#0077b6;stroke-opacity:1"
     inkscape:export-filename="C:\DataFiles\Documents\4Work\TahoniProjects\tahoni-web-vite\src\assets\img\g12.png"
     inkscape:export-xdpi="96"
     inkscape:export-ydpi="96">
    <path
       d="M5.771,9.887c-.044-.065-.855-1.323-.24-2.575,.067-.137,.484-.949,1.344-1.188,1.273-.353,2.203,.919,2.805,.535,.673-.429-.27-2.156,.507-3.129,.592-.741,1.896-.686,2.883-.531"
       stroke-linecap="round"
       stroke-linejoin="round"
       stroke="#212121"
       id="path4"
       style="stroke:#0077b6;stroke-opacity:1" />
    <path
       d="M5.771,9.887c1.589-.439,2.611-.224,3.292,.175,.939,.55,1.006,1.318,1.812,1.469,1.163,.218,1.844-1.227,2.875-1.031,.479,.091,1.062,.542,1.568,2.057"
       stroke-linecap="round"
       stroke-linejoin="round"
       stroke="#212121"
       id="path6"
       style="stroke:#0077b6;stroke-opacity:1" />
    <path
       d="M8.601,16.23c.148-.579,.234-1.343-.163-1.938-.423-.635-1.021-.517-1.422-1.182-.418-.694,.014-1.185-.297-2.047-.292-.809-.961-1.174-1.463-1.541-.836-.611-1.874-1.711-2.688-3.859"
       stroke-linecap="round"
       stroke-linejoin="round"
       stroke="#212121"
       id="path8"
       style="stroke:#0077b6;stroke-opacity:1" />
    <circle
       cx="9"
       cy="9"
       r="7.25"
       stroke-linecap="round"
       stroke-linejoin="round"
       id="circle10"
       style="stroke:#0077b6;stroke-opacity:1" />
  </g>
</svg>
