<?xml version="1.0" encoding="UTF-8" standalone="no"?>
<svg
   height="18"
   width="18"
   viewBox="0 0 18 18"
   version="1.1"
   id="svg8"
   sodipodi:docname="phone.svg"
   inkscape:version="1.1.1 (3bf5ae0d25, 2021-09-20)"
   inkscape:export-filename="C:\DataFiles\Documents\4Work\TahoniProjects\tahoni-web-vite\src\assets\img\phone.png"
   inkscape:export-xdpi="284.92999"
   inkscape:export-ydpi="284.92999"
   xmlns:inkscape="http://www.inkscape.org/namespaces/inkscape"
   xmlns:sodipodi="http://sodipodi.sourceforge.net/DTD/sodipodi-0.dtd"
   xmlns="http://www.w3.org/2000/svg"
   xmlns:svg="http://www.w3.org/2000/svg">
  <defs
     id="defs12" />
  <sodipodi:namedview
     id="namedview10"
     pagecolor="#ffffff"
     bordercolor="#666666"
     borderopacity="1.0"
     inkscape:pageshadow="2"
     inkscape:pageopacity="0.0"
     inkscape:pagecheckerboard="0"
     showgrid="false"
     inkscape:zoom="42.777778"
     inkscape:cx="9.0233766"
     inkscape:cy="9"
     inkscape:window-width="1920"
     inkscape:window-height="974"
     inkscape:window-x="-11"
     inkscape:window-y="-11"
     inkscape:window-maximized="1"
     inkscape:current-layer="svg8" />
  <title
     id="title2">phone</title>
  <g
     stroke-width="1.5"
     fill="none"
     stroke="#212121"
     class="nc-icon-wrapper"
     id="g6">
    <path
       d="M11.347,10.646l-1.141,1.426c-1.767-1.039-3.24-2.511-4.278-4.278l1.426-1.141c.344-.275,.459-.748,.28-1.15l-1.3-2.927c-.193-.434-.671-.664-1.13-.545l-2.475,.642c-.478,.125-.787,.588-.719,1.077,.892,6.354,5.886,11.348,12.241,12.241,.489,.067,.952-.242,1.076-.719l.642-2.475c.119-.459-.111-.936-.544-1.129l-2.927-1.3c-.402-.179-.874-.064-1.15,.279Z"
       stroke-linecap="round"
       stroke-linejoin="round"
       id="path4" />
  </g>
  <path
     style="fill:#90e0ef;fill-opacity:1;stroke:#0077b6;stroke-width:0.0234134;stroke-opacity:1"
     d="M 13.733766,16.657082 C 13.247477,16.571353 12.88203,16.492305 12.436364,16.37645 7.9936057,15.221509 4.2974392,12.08102 2.4300608,7.8744831 1.9229929,6.7322401 1.55914,5.5202582 1.3412547,4.2477057 1.2801836,3.8910219 1.2719166,3.7933483 1.2814869,3.5415584 1.2904404,3.3059959 1.3044488,3.2155258 1.3537498,3.0748635 1.5377375,2.5499226 1.9656017,2.1372186 2.4915463,1.9773817 2.574053,1.9523076 3.2168687,1.7832996 3.9200257,1.6018084 5.1340189,1.2884657 5.2100582,1.2717844 5.4278179,1.2710339 6.0285037,1.2689634 6.5576167,1.553117 6.8795243,2.0506542 6.9785014,2.2036324 8.3241678,5.2166705 8.3920982,5.4374089 8.4529124,5.6350248 8.4648408,6.0225737 8.416919,6.2438311 8.3630637,6.4924836 8.2037497,6.8168714 8.0495016,6.9919504 7.9808472,7.0698764 7.6959949,7.316878 7.4164963,7.5408429 7.1006517,7.7939324 6.9126417,7.9598347 6.9197428,7.9791838 c 0.023653,0.064449 0.3998716,0.5740281 0.661827,0.896429 0.3489864,0.4295134 1.113304,1.1938312 1.5428174,1.5428172 0.3637083,0.295519 0.8557988,0.654625 0.9033408,0.659219 0.01634,0.0016 0.202877,-0.212779 0.414531,-0.47635 0.425769,-0.530207 0.598595,-0.7039721 0.827466,-0.8319645 0.281413,-0.1573752 0.470049,-0.2050181 0.815989,-0.2060916 0.222716,-6.919e-4 0.343744,0.0102 0.453064,0.040769 0.153185,0.042836 2.960873,1.2800301 3.275508,1.4433371 0.621593,0.322628 0.969813,0.963654 0.906932,1.669534 -0.01075,0.12073 -0.141241,0.666158 -0.368154,1.538882 -0.317358,1.220578 -0.362095,1.372393 -0.460644,1.563202 -0.195015,0.377585 -0.552603,0.683461 -0.970952,0.830539 -0.144057,0.05065 -0.22026,0.06127 -0.486403,0.06781 -0.267607,0.0066 -0.374224,-0.0026 -0.701299,-0.06024 z m 0.805333,-1.456433 c 0.05266,-0.04625 0.09937,-0.20503 0.386807,-1.314935 0.179805,-0.694285 0.327013,-1.300681 0.327129,-1.347546 1.4e-4,-0.0584 -0.01662,-0.101409 -0.05328,-0.136696 -0.06134,-0.05904 -2.958139,-1.352975 -3.072676,-1.372494 -0.04942,-0.0084 -0.09592,4.98e-4 -0.134543,0.0258 -0.03246,0.02127 -0.333188,0.380962 -0.668279,0.799315 -0.73989,0.923736 -0.785894,0.960704 -1.171316,0.941241 C 9.9946026,12.78734 9.9604185,12.776062 9.781485,12.672788 8.4523925,11.905684 7.0849758,10.678491 6.0903152,9.3601337 5.853542,9.0463065 5.4901842,8.5030843 5.326445,8.2181434 5.2198548,8.0326538 5.2124914,8.0090348 5.2048005,7.8279583 5.1977695,7.6624207 5.2046603,7.617697 5.2536614,7.5111136 5.2850375,7.4428583 5.3375994,7.3554545 5.3704655,7.3168831 5.4033316,7.2783117 5.7670034,6.9785065 6.1786248,6.6506494 6.5902463,6.3227922 6.9384787,6.0303817 6.9524748,6.0008482 c 0.013996,-0.029534 0.025447,-0.078171 0.025447,-0.1080839 0,-0.085186 -1.327856,-3.0576268 -1.3868865,-3.1045822 C 5.563109,2.765968 5.504677,2.7475589 5.4611871,2.747273 5.4176973,2.7469872 4.8128271,2.8941481 4.1170313,3.0742973 2.707353,3.4392786 2.7467532,3.4236042 2.7467532,3.6194267 c 0,0.196171 0.167437,1.0562 0.3147975,1.6169369 1.1171177,4.2508613 4.2491208,7.7217474 8.3696183,9.2752104 0.85813,0.323523 1.586445,0.517347 2.688312,0.715432 0.221396,0.0398 0.353757,0.03149 0.419618,-0.02636 z"
     id="path3296" />
  <path
     style="fill:#0077b6;fill-opacity:1;stroke:#0077b6;stroke-width:0.0234134;stroke-opacity:1"
     d="M 13.711151,16.655562 C 11.293209,16.233961 9.0737755,15.273743 7.1415584,13.813286 4.0600169,11.484118 1.9954545,8.0897428 1.3450319,4.2831383 1.2648264,3.8137348 1.2528421,3.4590104 1.3091242,3.2203052 1.4308918,2.7038611 1.8347583,2.2315387 2.3248706,2.0323882 2.4432217,1.9842978 3.6485056,1.6634746 4.7805195,1.378742 5.1598209,1.2833373 5.2431625,1.2700095 5.4584416,1.2703303 c 0.4510608,6.721e-4 0.8609776,0.1684267 1.1800309,0.4829165 0.091306,0.09 0.2041578,0.2267532 0.2507818,0.3038961 0.098903,0.1636431 1.3928318,3.0621976 1.4852275,3.3270875 0.056057,0.16071 0.062677,0.2135111 0.063529,0.5066787 8.206e-4,0.2822935 -0.00655,0.3497624 -0.053658,0.4909091 C 8.309394,6.6064339 8.1909821,6.8252617 8.058963,6.9831442 7.9468146,7.1172636 7.9014881,7.1566775 7.2625292,7.6756874 L 6.9071388,7.9643621 7.0399115,8.1549082 C 7.7761071,9.2114467 8.765093,10.196294 9.8801972,10.983308 l 0.1555218,0.109764 0.385147,-0.474145 c 0.486733,-0.599203 0.646589,-0.7520465 0.932977,-0.8920456 0.285024,-0.1393322 0.528999,-0.1884392 0.847799,-0.170644 0.129097,0.00721 0.291041,0.030375 0.359875,0.051487 0.185324,0.05684 3.158954,1.3698026 3.322899,1.4671776 0.531974,0.315967 0.842245,0.856983 0.843751,1.471237 5.86e-4,0.239143 -0.0086,0.285987 -0.20991,1.075325 -0.334634,1.31183 -0.509952,1.962285 -0.560963,2.08125 -0.154483,0.360279 -0.464475,0.681091 -0.840704,0.870048 -0.341191,0.17136 -0.757031,0.195859 -1.405439,0.0828 z m 0.776671,-1.427355 c 0.03023,-0.01377 0.06633,-0.04325 0.08023,-0.0655 0.03611,-0.05782 0.158283,-0.513389 0.566962,-2.114133 0.06503,-0.254715 0.118237,-0.488187 0.118237,-0.518827 0,-0.103482 -0.0979,-0.168831 -0.561039,-0.374491 -0.250714,-0.111332 -0.829286,-0.368271 -1.285714,-0.570976 -1.427263,-0.633863 -1.289358,-0.580839 -1.390633,-0.534695 -0.0332,0.01513 -0.335629,0.368972 -0.672064,0.786323 -0.618934,0.767792 -0.739905,0.892084 -0.916066,0.941212 -0.158168,0.04411 -0.376678,0.02995 -0.5149858,-0.03337 C 9.5495585,12.577478 8.7083334,11.991408 8.0658306,11.457029 7.6928103,11.146784 6.839715,10.291506 6.5252775,9.9125348 6.0440098,9.3324951 5.469394,8.5127262 5.2831891,8.1405248 5.2110748,7.9963766 5.2013008,7.9555823 5.2013172,7.7988072 5.2013324,7.6511775 5.2128367,7.596468 5.2686926,7.4784004 5.3474164,7.3119951 5.3356825,7.322641 6.2642228,6.5751789 7.0307322,5.9581496 7.0219447,5.9689195 6.9316357,5.757195 6.8834588,5.6442469 6.2111426,4.126439 5.8104259,3.225974 5.6413559,2.8460503 5.5712583,2.7467532 5.4721262,2.7467532 5.4425155,2.7467532 4.9881345,2.8570576 4.462391,2.991874 2.8343995,3.4093397 2.8834053,3.3951417 2.8063388,3.4716676 l -0.068986,0.068502 0.028707,0.2300223 c 0.072572,0.5815028 0.3069523,1.5662824 0.5397894,2.2679916 0.5501881,1.6581223 1.3652366,3.1161684 2.5115808,4.4929855 0.3515216,0.422195 1.1859627,1.261125 1.6046481,1.61328 1.85026,1.556249 3.9880689,2.571175 6.3467529,3.013125 0.569279,0.106667 0.627378,0.112375 0.718991,0.07063 z"
     id="path3372"
     inkscape:export-filename="C:\DataFiles\Documents\4Work\TahoniProjects\tahoni-web-vite\src\assets\img\path3372.png"
     inkscape:export-xdpi="96"
     inkscape:export-ydpi="96" />
</svg>
