<?xml version="1.0" encoding="UTF-8" standalone="no"?>
<svg
   height="18"
   width="18"
   viewBox="0 0 18 18"
   version="1.1"
   id="svg16"
   sodipodi:docname="rocket.svg"
   inkscape:version="1.1.1 (3bf5ae0d25, 2021-09-20)"
   inkscape:export-filename="C:\DataFiles\Documents\4Work\TahoniProjects\tahoni-web-vite\src\assets\img\rocket.png"
   inkscape:export-xdpi="263.76111"
   inkscape:export-ydpi="263.76111"
   xmlns:inkscape="http://www.inkscape.org/namespaces/inkscape"
   xmlns:sodipodi="http://sodipodi.sourceforge.net/DTD/sodipodi-0.dtd"
   xmlns="http://www.w3.org/2000/svg"
   xmlns:svg="http://www.w3.org/2000/svg">
  <defs
     id="defs20" />
  <sodipodi:namedview
     id="namedview18"
     pagecolor="#ffffff"
     bordercolor="#666666"
     borderopacity="1.0"
     inkscape:pageshadow="2"
     inkscape:pageopacity="0.0"
     inkscape:pagecheckerboard="0"
     showgrid="false"
     inkscape:zoom="42.777778"
     inkscape:cx="9.0233766"
     inkscape:cy="8.9064935"
     inkscape:window-width="1920"
     inkscape:window-height="974"
     inkscape:window-x="-11"
     inkscape:window-y="-11"
     inkscape:window-maximized="1"
     inkscape:current-layer="g14" />
  <title
     id="title2">rocket</title>
  <g
     stroke-width="1.5"
     fill="none"
     stroke="#212121"
     class="nc-icon-wrapper"
     id="g14">
    <path
       d="M13.035,10.418c3.655-3.835,3.208-8.305,3.17-8.623-.319-.038-4.788-.485-8.623,3.17-2.323,2.214-3.105,4.686-3.332,5.513l3.272,3.272c.827-.227,3.299-1.009,5.513-3.332Z"
       stroke-linecap="round"
       stroke-linejoin="round"
       id="path4"
       style="stroke:#0077b6;stroke-opacity:1" />
    <circle
       cx="11.25"
       cy="6.75"
       r="1.75"
       stroke="none"
       fill="#212121"
       id="circle6"
       style="stroke:#0077b6;stroke-opacity:1" />
    <path
       d="M5.104,15.218c-.275,.608-.888,1.032-1.599,1.032H1.75v-1.754c0-.711,.423-1.324,1.032-1.599"
       stroke="#212121"
       stroke-linecap="round"
       stroke-linejoin="round"
       id="path8"
       style="stroke:#0077b6;stroke-opacity:1" />
    <path
       d="M12.972,10.484l.246,1.377c.224,1.253-.296,2.523-1.334,3.258l-2.654,1.881s.643-1.681,.279-4.005"
       stroke-linecap="round"
       stroke-linejoin="round"
       id="path10"
       style="stroke:#0077b6;stroke-opacity:1" />
    <path
       d="M7.516,5.028l-1.374-.246c-1.255-.225-2.527,.296-3.264,1.337l-1.878,2.651s1.681-.643,4.005-.279"
       stroke-linecap="round"
       stroke-linejoin="round"
       id="path12"
       style="stroke:#0077b6;stroke-opacity:1" />
    <path
       style="fill:#023e8a;stroke:#ffffff;stroke-width:0.0234134;stroke-opacity:0"
       d="m 11.092208,7.7230257 c -0.298399,-0.04837 -0.589043,-0.2656271 -0.722225,-0.5398655 -0.243269,-0.5009215 -0.04443,-1.071854 0.460159,-1.3212573 0.168013,-0.083044 0.190071,-0.087877 0.401097,-0.087877 0.265073,0 0.404921,0.041554 0.592922,0.1761778 0.236272,0.1691906 0.381833,0.4288407 0.406701,0.7254659 0.0526,0.627373 -0.514066,1.1486003 -1.138654,1.0473561 z"
       id="path1613" />
    <path
       style="fill:#ffffff;stroke:#ffffff;stroke-width:0.0234134;stroke-opacity:1;fill-opacity:1"
       d="M 11.039515,7.7005947 C 10.793718,7.6426647 10.504617,7.4135257 10.38941,7.1853274 10.140258,6.6918143 10.33833,6.1231743 10.848183,5.8682471 c 0.114378,-0.057189 0.174498,-0.070967 0.341342,-0.078224 0.436531,-0.018988 0.768011,0.1805681 0.946904,0.5700518 0.08401,0.1829133 0.10314,0.4812833 0.04281,0.6678636 -0.157013,0.4855982 -0.66395,0.784788 -1.139725,0.6726563 z"
       id="path1985"
       inkscape:export-filename="C:\DataFiles\Documents\4Work\TahoniProjects\tahoni-web-vite\src\assets\img\path1985.png"
       inkscape:export-xdpi="96"
       inkscape:export-ydpi="96" />
  </g>
</svg>
