<svg xmlns="http://www.w3.org/2000/svg" width="682.667" height="682.667" preserveAspectRatio="xMidYMid meet" version="1.0" viewBox="0 0 512 512"><metadata>Created by potrace 1.14, written by Peter Selinger 2001-2017</metadata><g fill="#000" stroke="none"><path d="M3120 4015 c0 -609 1 -655 20 -731 38 -162 113 -287 243 -411 96 -90 216 -158 342 -195 68 -20 103 -23 235 -23 132 0 167 3 235 23 126 37 246 105 342 195 130 124 205 249 243 411 19 76 20 122 20 731 l0 650 -283 -283 -282 -282 -275 0 -275 0 -282 282 -283 283 0 -650z m581 -384 c35 -35 39 -44 39 -91 0 -47 -4 -56 -39 -91 -35 -35 -44 -39 -91 -39 -47 0 -56 4 -91 39 -35 35 -39 44 -39 91 0 47 4 56 39 91 35 35 44 39 91 39 47 0 56 -4 91 -39z m700 0 c35 -35 39 -44 39 -91 0 -47 -4 -56 -39 -91 -35 -35 -44 -39 -91 -39 -47 0 -56 4 -91 39 -35 35 -39 44 -39 91 0 47 4 56 39 91 35 35 44 39 91 39 47 0 56 -4 91 -39z" transform="translate(0.000000,512.000000) scale(0.100000,-0.100000)"/><path d="M484 4082 c-60 -29 -109 -76 -138 -134 -33 -66 -36 -180 -7 -243 47 -103 119 -151 257 -170 139 -20 207 -66 258 -175 21 -45 21 -53 26 -1260 l5 -1215 22 -60 c58 -153 185 -280 338 -338 l60 -22 866 -3 867 -2 31 26 c50 42 54 57 52 198 -2 101 -6 139 -20 171 -25 56 -65 101 -120 133 -44 26 -53 27 -224 32 l-177 5 550 413 550 412 0 -656 0 -656 39 -39 39 -39 200 0 200 0 31 26 c18 14 36 35 41 45 9 16 16 1867 7 1875 -1 1 -29 -4 -62 -12 -97 -24 -275 -28 -385 -10 -234 38 -427 135 -600 302 -142 137 -248 310 -300 493 l-25 84 -125 -6 c-346 -15 -699 -149 -965 -367 -90 -74 -216 -206 -280 -293 l-50 -69 -5 454 c-6 440 -6 455 -29 523 -93 278 -293 478 -566 565 -102 32 -303 39 -361 12z" transform="translate(0.000000,512.000000) scale(0.100000,-0.100000)"/></g></svg>