<svg xmlns="http://www.w3.org/2000/svg" xmlns:svg="http://www.w3.org/2000/svg" id="svg8" width="192" height="180" version="1.1" viewBox="0 0 50.8 47.625"><metadata id="metadata5"/><g id="layer1" transform="translate(-86.178574,-72.784518)"><g id="text4749" aria-label="" style="font-size:50.8px;line-height:1.25;font-family:'Font Awesome 5 Free';-inkscape-font-specification:'Font Awesome 5 Free, Normal';letter-spacing:0;word-spacing:0;fill:#023e8a;stroke-width:.265"><path id="path905" d="m 114.95201,88.659517 c -1.98437,0 -10.61641,0.198438 -16.073437,8.532813 v -8.532813 c 0,-5.159375 -4.365625,-9.525 -9.524999,-9.525 -1.785938,0 -3.175,1.488282 -3.175,3.175 0,1.785938 1.389062,3.175 3.175,3.175 1.686718,0 3.175,1.488282 3.175,3.175 v 25.400003 c 0,3.57187 2.778124,6.35 6.349999,6.35 h 17.462497 c 0.79375,0 1.5875,-0.69453 1.5875,-1.5875 v -1.5875 c 0,-1.68672 -1.48828,-3.175 -3.175,-3.175 h -3.175 l 12.7,-9.525 v 14.2875 c 0,0.89297 0.69453,1.5875 1.5875,1.5875 h 3.175 c 0.79375,0 1.5875,-0.69453 1.5875,-1.5875 V 98.382955 c -1.0914,0.297656 -2.08359,0.496093 -3.175,0.496093 -6.15156,0 -11.31093,-4.365625 -12.50156,-10.219531 z m 15.67656,-9.525 h -6.35 l -6.35,-6.349999 v 13.394531 c 0,5.258593 4.16719,9.524999 9.525,9.524999 5.2586,0 9.525,-4.266406 9.525,-9.524999 V 72.784518 Z m -7.14375,7.9375 c -0.89297,0 -1.5875,-0.694531 -1.5875,-1.5875 0,-0.79375 0.69453,-1.5875 1.5875,-1.5875 0.79375,0 1.5875,0.79375 1.5875,1.5875 0,0.892969 -0.79375,1.5875 -1.5875,1.5875 z m 7.9375,0 c -0.89297,0 -1.5875,-0.694531 -1.5875,-1.5875 0,-0.79375 0.69453,-1.5875 1.5875,-1.5875 0.79375,0 1.5875,0.79375 1.5875,1.5875 0,0.892969 -0.79375,1.5875 -1.5875,1.5875 z"/></g></g></svg>