<?xml version="1.0" encoding="UTF-8" standalone="no"?>
<!-- Created with Inkscape (http://www.inkscape.org/) -->

<svg
   width="50.799999mm"
   height="47.625mm"
   viewBox="0 0 50.8 47.625"
   version="1.1"
   id="svg8"
   inkscape:version="1.1.1 (3bf5ae0d25, 2021-09-20)"
   sodipodi:docname="tahoni-icon.svg"
   inkscape:export-filename="C:\DataFiles\Documents\4Work\TahoniProjects\tahoni-images\tahoni-icon.png"
   inkscape:export-xdpi="96"
   inkscape:export-ydpi="96"
   xmlns:inkscape="http://www.inkscape.org/namespaces/inkscape"
   xmlns:sodipodi="http://sodipodi.sourceforge.net/DTD/sodipodi-0.dtd"
   xmlns="http://www.w3.org/2000/svg"
   xmlns:svg="http://www.w3.org/2000/svg"
   xmlns:rdf="http://www.w3.org/1999/02/22-rdf-syntax-ns#"
   xmlns:cc="http://creativecommons.org/ns#"
   xmlns:dc="http://purl.org/dc/elements/1.1/">
  <defs
     id="defs2" />
  <sodipodi:namedview
     id="base"
     pagecolor="#ffffff"
     bordercolor="#666666"
     borderopacity="1.0"
     inkscape:pageopacity="0.0"
     inkscape:pageshadow="2"
     inkscape:zoom="1"
     inkscape:cx="-167"
     inkscape:cy="205"
     inkscape:document-units="mm"
     inkscape:current-layer="text4749"
     showgrid="false"
     inkscape:snap-text-baseline="true"
     inkscape:window-width="1920"
     inkscape:window-height="974"
     inkscape:window-x="-11"
     inkscape:window-y="-11"
     inkscape:window-maximized="1"
     inkscape:pagecheckerboard="0" />
  <metadata
     id="metadata5">
    <rdf:RDF>
      <cc:Work
         rdf:about="">
        <dc:format>image/svg+xml</dc:format>
        <dc:type
           rdf:resource="http://purl.org/dc/dcmitype/StillImage" />
        <dc:title />
      </cc:Work>
    </rdf:RDF>
  </metadata>
  <g
     inkscape:label="Layer 1"
     inkscape:groupmode="layer"
     id="layer1"
     transform="translate(-86.178574,-72.784518)">
    <g
       aria-label=""
       id="text4749"
       style="font-size:50.8px;line-height:1.25;font-family:'Font Awesome 5 Free';-inkscape-font-specification:'Font Awesome 5 Free, Normal';letter-spacing:0px;word-spacing:0px;fill:#023e8a;stroke-width:0.265">
      <path
         d="m 114.95201,88.659517 c -1.98437,0 -10.61641,0.198438 -16.073437,8.532813 v -8.532813 c 0,-5.159375 -4.365625,-9.525 -9.524999,-9.525 -1.785938,0 -3.175,1.488282 -3.175,3.175 0,1.785938 1.389062,3.175 3.175,3.175 1.686718,0 3.175,1.488282 3.175,3.175 v 25.400003 c 0,3.57187 2.778124,6.35 6.349999,6.35 h 17.462497 c 0.79375,0 1.5875,-0.69453 1.5875,-1.5875 v -1.5875 c 0,-1.68672 -1.48828,-3.175 -3.175,-3.175 h -3.175 l 12.7,-9.525 v 14.2875 c 0,0.89297 0.69453,1.5875 1.5875,1.5875 h 3.175 c 0.79375,0 1.5875,-0.69453 1.5875,-1.5875 V 98.382955 c -1.0914,0.297656 -2.08359,0.496093 -3.175,0.496093 -6.15156,0 -11.31093,-4.365625 -12.50156,-10.219531 z m 15.67656,-9.525 h -6.35 l -6.35,-6.349999 v 13.394531 c 0,5.258593 4.16719,9.524999 9.525,9.524999 5.2586,0 9.525,-4.266406 9.525,-9.524999 V 72.784518 Z m -7.14375,7.9375 c -0.89297,0 -1.5875,-0.694531 -1.5875,-1.5875 0,-0.79375 0.69453,-1.5875 1.5875,-1.5875 0.79375,0 1.5875,0.79375 1.5875,1.5875 0,0.892969 -0.79375,1.5875 -1.5875,1.5875 z m 7.9375,0 c -0.89297,0 -1.5875,-0.694531 -1.5875,-1.5875 0,-0.79375 0.69453,-1.5875 1.5875,-1.5875 0.79375,0 1.5875,0.79375 1.5875,1.5875 0,0.892969 -0.79375,1.5875 -1.5875,1.5875 z"
         id="path905" />
    </g>
  </g>
</svg>
