<?xml version="1.0" encoding="UTF-8" standalone="no"?>
<!-- Created with Inkscape (http://www.inkscape.org/) -->

<svg
   width="160.52399mm"
   height="50.799999mm"
   viewBox="0 0 160.52398 50.799999"
   version="1.1"
   id="svg8"
   inkscape:version="1.1.1 (3bf5ae0d25, 2021-09-20)"
   sodipodi:docname="tahoni-id.svg"
   inkscape:export-filename="C:\Users\tahoni\Downloads\tahoni-id.png"
   inkscape:export-xdpi="96"
   inkscape:export-ydpi="96"
   xmlns:inkscape="http://www.inkscape.org/namespaces/inkscape"
   xmlns:sodipodi="http://sodipodi.sourceforge.net/DTD/sodipodi-0.dtd"
   xmlns="http://www.w3.org/2000/svg"
   xmlns:svg="http://www.w3.org/2000/svg"
   xmlns:rdf="http://www.w3.org/1999/02/22-rdf-syntax-ns#"
   xmlns:cc="http://creativecommons.org/ns#"
   xmlns:dc="http://purl.org/dc/elements/1.1/">
  <defs
     id="defs2" />
  <sodipodi:namedview
     id="base"
     pagecolor="#ffffff"
     bordercolor="#666666"
     borderopacity="1.0"
     inkscape:pageopacity="0.0"
     inkscape:pageshadow="2"
     inkscape:zoom="1"
     inkscape:cx="212"
     inkscape:cy="-166"
     inkscape:document-units="mm"
     inkscape:current-layer="text4749"
     showgrid="false"
     inkscape:snap-text-baseline="true"
     inkscape:window-width="1920"
     inkscape:window-height="974"
     inkscape:window-x="-11"
     inkscape:window-y="-11"
     inkscape:window-maximized="1"
     inkscape:pagecheckerboard="0" />
  <metadata
     id="metadata5">
    <rdf:RDF>
      <cc:Work
         rdf:about="">
        <dc:format>image/svg+xml</dc:format>
        <dc:type
           rdf:resource="http://purl.org/dc/dcmitype/StillImage" />
        <dc:title />
      </cc:Work>
    </rdf:RDF>
  </metadata>
  <g
     inkscape:label="Layer 1"
     inkscape:groupmode="layer"
     id="layer1"
     transform="translate(-86.686178,-69.609518)">
    <g
       aria-label=" tahoni"
       id="text4749"
       style="font-size:50.8px;line-height:1.25;font-family:'Font Awesome 5 Free';-inkscape-font-specification:'Font Awesome 5 Free, Normal';letter-spacing:0px;word-spacing:0px;fill:#023e8a;stroke-width:0.264583">
      <path
         d="m 115.28274,88.659517 h 1.68672 c 2.18281,3.869531 6.25078,6.35 11.01328,6.35 1.0914,0 2.08359,-0.09922 3.175,-0.396875 v 0.396875 3.175 19.050003 c 0,1.78593 -1.48828,3.175 -3.175,3.175 -1.78594,0 -3.175,-1.38907 -3.175,-3.175 v -13.89063 l -13.49375,10.71563 h 5.55625 c 1.68672,0 3.175,1.48828 3.175,3.175 0,1.78593 -1.48828,3.175 -3.175,3.175 h -14.2875 c -5.258596,0 -9.525002,-4.26641 -9.525002,-9.525 V 88.758736 c 0,-1.5875 -1.190625,-2.976562 -2.778125,-3.175 l -0.79375,-0.09922 C 87.699925,85.28608 86.5093,83.69858 86.707738,81.912642 c 0.198437,-1.686718 1.785937,-2.976562 3.571875,-2.678906 l 0.694531,0.09922 c 4.7625,0.595312 8.433593,4.564062 8.433593,9.425781 v 8.433594 c 3.373433,-5.060157 9.227343,-8.532813 15.875003,-8.532813 z m 15.875,2.678906 c -0.99219,0.297657 -2.0836,0.496094 -3.175,0.496094 -2.87735,0 -5.35782,-1.190625 -7.14375,-3.175 -0.39688,-0.396875 -0.69453,-0.79375 -0.99219,-1.289843 -0.89297,-1.488282 -1.38906,-3.175 -1.38906,-5.060157 v -9.524999 -1.984375 -0.09922 c 0,-0.595313 0.39687,-0.992188 0.99218,-1.091406 v 0 c 0.39688,0 0.69454,0.198437 0.89297,0.496093 v 0 l 1.28985,1.686719 2.6789,3.571875 0.4961,0.595312 h 6.35 l 0.39687,-0.595312 2.77813,-3.571875 1.19062,-1.686719 v 0 c 0.19844,-0.297656 0.4961,-0.496093 0.89297,-0.496093 v 0 c 0.59531,0.09922 1.09141,0.496093 1.09141,1.091406 v 0.09922 1.984375 9.524999 c 0,1.785938 -0.4961,3.373438 -1.28985,4.7625 -1.0914,1.984375 -2.97656,3.472657 -5.06015,4.266406 z m -4.7625,-9.028906 c 0,-0.79375 -0.79375,-1.5875 -1.5875,-1.5875 -0.89297,0 -1.5875,0.79375 -1.5875,1.5875 0,0.892969 0.69453,1.5875 1.5875,1.5875 0.79375,0 1.5875,-0.694531 1.5875,-1.5875 z m 4.7625,1.5875 c 0.79375,0 1.5875,-0.694531 1.5875,-1.5875 0,-0.79375 -0.79375,-1.5875 -1.5875,-1.5875 -0.89297,0 -1.5875,0.79375 -1.5875,1.5875 0,0.892969 0.69453,1.5875 1.5875,1.5875 z"
         style="font-family:'Font Awesome 6 Free';-inkscape-font-specification:'Font Awesome 6 Free'"
         id="path828" />
      <path
         d="m 140.68274,101.35952 h 8.73125 v -9.525003 h -0.79375 c -4.41524,0 -7.9375,3.571875 -7.9375,7.9375 z m 0,1.5875 v 6.35 c 0,4.41523 3.52226,7.9375 7.9375,7.9375 h 3.175 c 4.36562,0 7.9375,-3.52227 7.9375,-7.9375 v -6.35 h -9.525 z m 19.05,-1.5875 v -1.587503 c 0,-4.365625 -3.57188,-7.9375 -7.9375,-7.9375 h -0.79375 v 9.525003 z"
         style="font-family:'Font Awesome 6 Free';-inkscape-font-specification:'Font Awesome 6 Free'"
         id="path830" />
      <path
         d="m 176.95394,111.29092 q 0.6096,0 1.1176,-0.127 0.5334,-0.127 1.0922,-0.3048 v 2.8194 q -0.635,0.254 -1.4986,0.4318 -0.8382,0.2032 -1.9812,0.2032 -1.2192,0 -2.1844,-0.4064 -0.9398,-0.4064 -1.4732,-1.397 -0.5334,-1.016 -0.5334,-2.794 v -6.6802 h -1.651 v -1.6002 l 1.9812,-1.27 1.1176,-2.921003 h 2.6162 v 2.946403 h 3.4544 v 2.8448 h -3.4544 v 6.6802 q 0,0.7874 0.381,1.1938 0.381,0.381 1.016,0.381 z"
         style="font-weight:bold;font-family:'Noto Sans Display';-inkscape-font-specification:'Noto Sans Display Bold'"
         id="path832" />
      <path
         d="m 187.54569,99.911717 q 2.5654,0 3.9624,1.219203 1.4224,1.1938 1.4224,3.683 v 9.2456 h -2.8194 l -0.7874,-1.8796 h -0.1016 q -0.5588,0.7366 -1.143,1.2192 -0.5842,0.4826 -1.3462,0.6858 -0.762,0.2286 -1.8542,0.2286 -1.143,0 -2.0574,-0.4572 -0.889,-0.4826 -1.4224,-1.4478 -0.5334,-0.9906 -0.5334,-2.4892 0,-2.2098 1.4478,-3.2512 1.4732,-1.0668 4.318,-1.1684 l 2.2352,-0.0762 v -0.6096 q 0,-1.0922 -0.4826,-1.6002 -0.4826,-0.508 -1.3208,-0.508 -0.8636,0 -1.8034,0.3048 -0.9398,0.2794 -1.8796,0.7112 l -1.2446,-2.5654 q 1.1176,-0.5842 2.4638,-0.9144 1.3716,-0.330203 2.9464,-0.330203 z m 0.127,7.772403 q -1.4732,0.0508 -2.0828,0.6604 -0.5842,0.6096 -0.5842,1.6002 0,0.8636 0.4064,1.2446 0.4318,0.3556 1.1176,0.3556 0.9652,0 1.651,-0.7112 0.7112,-0.7366 0.7112,-2.0574 v -1.143 z"
         style="font-weight:bold;font-family:'Noto Sans Display';-inkscape-font-specification:'Noto Sans Display Bold'"
         id="path834" />
      <path
         d="m 200.37268,98.692517 q 0,1.016 -0.0762,1.955803 -0.0508,0.9398 -0.1016,1.3208 h 0.2032 q 0.4318,-0.7112 0.9652,-1.143 0.5588,-0.4572 1.2446,-0.6604 0.6858,-0.228603 1.4732,-0.228603 1.3716,0 2.413,0.533403 1.0668,0.5334 1.6764,1.651 0.6096,1.1176 0.6096,2.8956 v 9.0424 h -4.0894 v -8.1026 q 0,-1.4986 -0.4572,-2.2352 -0.4318,-0.762 -1.3716,-0.762 -0.9398,0 -1.4986,0.5334 -0.5334,0.5334 -0.762,1.5494 -0.2286,1.016 -0.2286,2.4892 v 6.5278 h -4.064 V 94.755517 h 4.064 z"
         style="font-weight:bold;font-family:'Noto Sans Display';-inkscape-font-specification:'Noto Sans Display Bold'"
         id="path836" />
      <path
         d="m 224.37565,107.09992 q 0,1.7272 -0.4572,3.0734 -0.4318,1.3462 -1.27,2.286 -0.8382,0.9144 -2.0574,1.397 -1.1938,0.4572 -2.6924,0.4572 -1.397,0 -2.5908,-0.4572 -1.1684,-0.4826 -2.032,-1.397 -0.8636,-0.9398 -1.3462,-2.286 -0.4572,-1.3462 -0.4572,-3.0734 0,-2.3114 0.7874,-3.8862 0.7874,-1.6002 2.2352,-2.4384 1.4732,-0.838203 3.4798,-0.838203 1.8542,0 3.302,0.838203 1.4478,0.8382 2.2606,2.4384 0.8382,1.5748 0.8382,3.8862 z m -8.763,0 q 0,1.3716 0.2286,2.3114 0.254,0.9144 0.762,1.397 0.508,0.4572 1.3462,0.4572 0.8382,0 1.3208,-0.4572 0.508,-0.4826 0.7366,-1.397 0.2286,-0.9398 0.2286,-2.3114 0,-1.3716 -0.2286,-2.286 -0.2286,-0.9144 -0.7366,-1.3716 -0.508,-0.4572 -1.3462,-0.4572 -1.2446,0 -1.778,1.0414 -0.5334,1.016 -0.5334,3.0734 z"
         style="font-weight:bold;font-family:'Noto Sans Display';-inkscape-font-specification:'Noto Sans Display Bold'"
         id="path838" />
      <path
         d="m 234.9674,99.937117 q 2.0828,0 3.3528,1.219203 1.2954,1.1938 1.2954,3.8608 v 9.0424 h -4.064 v -8.1026 q 0,-1.4986 -0.4572,-2.2352 -0.4318,-0.762 -1.397,-0.762 -1.4732,0 -1.9812,1.1938 -0.508,1.1684 -0.508,3.3782 v 6.5278 h -4.064 v -13.8684 h 3.0734 l 0.5588,1.778 h 0.1778 q 0.4318,-0.7112 1.016,-1.143 0.6096,-0.4572 1.3716,-0.6604 0.762,-0.228603 1.6256,-0.228603 z"
         style="font-weight:bold;font-family:'Noto Sans Display';-inkscape-font-specification:'Noto Sans Display Bold'"
         id="path840" />
      <path
         d="m 247.05776,100.19112 v 13.8684 h -4.064 v -13.8684 z m -2.0066,-5.435603 q 0.889,0 1.524,0.4064 0.635,0.381 0.635,1.4478 0,1.0414 -0.635,1.4478 -0.635,0.4064 -1.524,0.4064 -0.9144,0 -1.5494,-0.4064 -0.635,-0.4064 -0.635,-1.4478 0,-1.0668 0.635,-1.4478 0.635,-0.4064 1.5494,-0.4064 z"
         style="font-weight:bold;font-family:'Noto Sans Display';-inkscape-font-specification:'Noto Sans Display Bold'"
         id="path842" />
    </g>
  </g>
</svg>
