<svg xmlns="http://www.w3.org/2000/svg" xmlns:svg="http://www.w3.org/2000/svg" id="svg4878" width="264" height="180" version="1.1" viewBox="0 0 69.85 47.625"><metadata id="metadata4875"/><g id="layer1" transform="translate(-88.29524,-146.94345)"><path d="m 117.06868,162.81845 c -1.98438,0 -10.61641,0.19844 -16.07344,8.53281 v -8.53281 c 0,-5.15938 -4.365626,-9.525 -9.525,-9.525 -1.785938,0 -3.175,1.48828 -3.175,3.175 0,1.78594 1.389062,3.175 3.175,3.175 1.686718,0 3.175,1.48828 3.175,3.175 v 25.4 c 0,3.57187 2.778124,6.35 6.35,6.35 h 17.4625 c 0.79375,0 1.5875,-0.69453 1.5875,-1.5875 v -1.5875 c 0,-1.68672 -1.48828,-3.175 -3.175,-3.175 h -3.175 l 12.7,-9.525 v 14.2875 c 0,0.89297 0.69453,1.5875 1.5875,1.5875 h 3.175 c 0.79375,0 1.5875,-0.69453 1.5875,-1.5875 v -20.43906 c -1.0914,0.29765 -2.08359,0.49609 -3.175,0.49609 -6.15156,0 -11.31094,-4.36562 -12.50156,-10.21953 z m 15.67656,-9.525 h -6.35 l -6.35,-6.35 v 13.39453 c 0,5.25859 4.16719,9.525 9.525,9.525 5.2586,0 9.525,-4.26641 9.525,-9.525 v -13.39453 z m -7.14375,7.9375 c -0.89297,0 -1.5875,-0.69453 -1.5875,-1.5875 0,-0.79375 0.69453,-1.5875 1.5875,-1.5875 0.79375,0 1.5875,0.79375 1.5875,1.5875 0,0.89297 -0.79375,1.5875 -1.5875,1.5875 z m 7.9375,0 c -0.89297,0 -1.5875,-0.69453 -1.5875,-1.5875 0,-0.79375 0.69453,-1.5875 1.5875,-1.5875 0.79375,0 1.5875,0.79375 1.5875,1.5875 0,0.89297 -0.79375,1.5875 -1.5875,1.5875 z" style="font-style:normal;font-variant:normal;font-weight:400;font-stretch:normal;font-size:50.8px;line-height:1.25;font-family:'Font Awesome 5 Free';-inkscape-font-specification:'Font Awesome 5 Free, Normal';font-variant-ligatures:normal;font-variant-caps:normal;font-variant-numeric:normal;font-feature-settings:normal;text-align:start;letter-spacing:0;word-spacing:0;writing-mode:lr-tb;text-anchor:start;fill:#023e8a;fill-opacity:1;stroke:none;stroke-width:.264583" id="path4843"/><path d="m 139.09524,183.45595 c 0,4.41523 3.52227,7.9375 7.9375,7.9375 h 3.175 c 4.36563,0 7.9375,-3.52227 7.9375,-7.9375 v -6.35 h -19.05 z m 8.73125,-17.4625 h -0.79375 c -4.41523,0 -7.9375,3.57187 -7.9375,7.9375 v 1.5875 h 8.73125 z m 2.38125,0 h -0.79375 v 9.525 h 8.73125 v -1.5875 c 0,-4.36563 -3.57187,-7.9375 -7.9375,-7.9375 z" style="font-style:normal;font-variant:normal;font-weight:400;font-stretch:normal;font-size:25.4px;line-height:1.25;font-family:'Font Awesome 5 Free';-inkscape-font-specification:'Font Awesome 5 Free, Normal';font-variant-ligatures:normal;font-variant-caps:normal;font-variant-numeric:normal;font-feature-settings:normal;text-align:start;letter-spacing:0;word-spacing:0;writing-mode:lr-tb;text-anchor:start;fill:#023e8a;fill-opacity:1;stroke:none;stroke-width:.264583" id="path4845"/><path style="fill:#023e8a;fill-opacity:1;stroke-width:1.41421" id="path1015" d="m 144.50804,83.658371 c -9.0496,-3.222856 -16.52755,-9.98605 -20.57074,-18.604547 -2.67343,-5.698726 -3.03459,-9.394475 -3.45502,-35.355339 l -0.46951,-28.99137822 11.79449,11.66726222 11.7945,11.667262 h 12.66709 12.6671 L 179.92739,13.114653 190.91883,2.1876758 V 30.130639 c 0,29.822141 -0.65832,33.492449 -7.65187,42.661475 -1.82695,2.395249 -6.55737,6.116057 -10.51204,8.268464 -9.53827,5.191374 -18.61919,6.026524 -28.24688,2.597793 z m -0.16528,-29.968013 c 3.69017,-1.974923 3.69017,-9.239271 0,-11.214193 -3.71639,-1.988949 -5.16412,-1.847649 -7.77014,0.758365 -2.83836,2.838364 -2.83836,6.859098 0,9.697463 2.60602,2.606014 4.05375,2.747313 7.77014,0.758365 z m 31.01972,-1.364456 c 3.40474,-3.404733 3.46006,-4.125738 0.62692,-8.17061 -2.61706,-3.736373 -5.8099,-4.010314 -9.3544,-0.802592 -3.47909,3.148533 -3.25993,6.926727 0.55687,9.600117 4.04487,2.833139 4.76588,2.777818 8.17061,-0.626915 z" transform="matrix(0.26458333,0,0,0.26458333,88.29524,146.94345)"/><path style="fill:#023e8a;fill-opacity:1;stroke-width:1.41421" id="path1054" d="m 225.40944,89.802561 c 0.002,-10.111627 0.22773,-14.062636 0.50057,-8.78002 0.27284,5.282616 0.27081,13.555766 -0.005,18.384776 -0.27532,4.829013 -0.49855,0.506871 -0.49607,-9.604756 z" transform="matrix(0.26458333,0,0,0.26458333,88.29524,146.94345)"/><path style="fill:#023e8a;fill-opacity:1;stroke-width:1.41421" id="path1132" d="M 231.93102,89.738479 V 71.996727 l 5.30331,0.935327 c 14.11951,2.490215 24.39356,13.251548 25.5105,26.720428 l 0.64914,7.827748 H 247.6625 231.93102 Z" transform="matrix(0.26458333,0,0,0.26458333,88.29524,146.94345)"/></g></svg>